<svg xmlns="http://www.w3.org/2000/svg" id="_レイヤー_2" version="1.1" viewBox="0 0 643.92688 2702.34814" width="644px" height="2702px" class="lg:!max-h-[405px] isometric rectangleModalImage" role="img" aria-label="大きく両手でガッツポーズをする女性 アイソメトリック イラスト"><title>大きく両手でガッツポーズをする女性 アイソメトリック イラスト</title><g id="_女性"><g><g><g><path d="M156.58079,368.00007c-26.0595-25.60241-94.86849-46.76578-118.43199-40.87719s-83.16809,47.39479,47.83769,107.19577c40.4425,18.461,86.76931-50.42728,70.59419-66.3187l.0001.00011Z" fill="#ffd6d6"/><g><path d="M27.1015,381.05335c55.36329,2.33921,91.38129-195.72598,147.70439-323.40546,3.26719-7.4064-5.90259-19.4553-21.4356-7.8222C78.49869,105.89879,13.2633,269.01098,2.7065,324.63868c-12.8804,67.87158,24.395,56.41468,24.395,56.41468Z" fill="#ffd6d6"/><path d="M213.24848,58.11739c-2.2806,7.9992,7.25,27.68409.9215,34.28099-10.5476,10.9949-30.53379,11.3805-51.0688,9.4139-34.1174-3.2675-42.0157-36.8332-40.32409-49.2924C130.12539-1.6009,138.97869-5.4614,176.96188,4.072c27.4156,6.8811,48.94451,9.648,36.2865,54.04539h.0001Z" fill="#ffd6d6"/></g><path d="M436.57947,421.85608c-23.98441-16.98849-109.04929-31.58779-147.7246-44.98779-37.5098-12.99621-167.17259-41.81888-167.78239-36.8238-.539,4.41502-66.82549,136.35008-45.45859,157.5788,13.5312,13.44372,120.67469,56.37798,131.90348,107.10128,23.4437,105.90053,229.06198-182.8686,229.06198-182.8686l.00011.00011Z" fill="#c70095"/></g><g><path d="M557.13793,713.30651c1.8848-35.31639,45.55301-127.05069,38.08231-154.58189-5.93948-21.8848-4.28982-59.61028-22.44049-80.9299-39.67769-46.60518-124.92877-79.82089-221.94986-78.38908-97.23069,1.4349-142.3762,162.96988-141.25458,225.88079,1.0808,60.62568,62.67888,65.04608,34.6751,277.68041-18.40929,139.78285,330.57917,103.2363,322.83213,66.69326-1.418-6.68953-2.58011-14.3145-3.35159-23.11126-1.32519-15.1094-1.4941-33.69529.2129-57.07229,3.68069-50.44143-7.64481-160.45126-6.80592-176.1701v.00008Z" fill="#c70095"/><path d="M477.03967,631.12116c-18.47408,142.21236-9.291,272.35547,86.69139,315.42767-1.32519-15.1094-1.4941-33.69529.2129-57.07229,3.68069-50.44143-7.64481-160.45126-6.80592-176.1701,1.8848-35.31639,45.55301-127.05069,38.08231-154.58189-41.97361,11.43749-113.3863,35.48988-118.18068,72.3965v.00011Z" opacity=".1"/></g><path d="M152.93458,2448.28132c57.365-33.11966,196.87827-6.26923,311.61157,59.97192,114.73338,66.24114,161.23961,146.78923,103.87458,179.90904-57.36499,33.11981-196.87826,6.26923-311.61157-59.97192-114.73339-66.24114-161.23959-146.78938-103.87459-179.90904Z" fill="#1a1a1a" opacity=".05"/><g><g><path d="M140.31378,2486.05872c-15.1429,11.27014-66.276,55.93994-50.55509,73.55956,15.7209,17.61963,80.6294,4.90723,116.51599-8.98437,35.8867-13.8916,68.2484-113.81041,68.2484-113.81041,0,0-3.3816,43.56872,2.7593,47.78549s10.9658-4.99451,10.9658-9.81949-1.19381-51.77047,1.1533-57.63824,1.05101-28.33755-6.06331-35.01083-16.6752-16.87515-38.45609-16.5596-70.46209,95.09444-104.56829,120.47805v-.00015Z" fill="#3c4358"/><path d="M265.68008,2211.17517c28.56159,43.91098-16.10861,126.42974,12.89659,165.74599,9.6141,13.03192-21.3155,77.36114-40.29609,99.73311-12.36259,14.57153-55.35881,51.61941-82.55229,28.81195-17.3964-14.59061,42.10479-110.04073,59.8221-125.43975,11.3187-9.83765-16.268-140.65795-21.4377-153.21288s59.2271-34.61029,71.5673-15.63827l.0001-.00015Z" fill="#ffd6d6"/></g><path d="M342.27925,1645.3186s-18.6401,322.88098-16.08681,627.55655c.14481,17.27478-65.69959,37.18109-84.2802,38.02108-22.7206,1.02722-82.77799-19.58252-81.00768-51.65603,10.15489-183.98237-7.8122-273.15473-11.9359-526.74464-2.0183-124.11879,193.31059-87.17712,193.31059-87.17712v.00015Z" fill="#3c4358"/><path d="M217.68207,1028.35432c-57.2862,522.03997-60.28139,559.73421-68.69769,689.16719-1.7492,26.89987,70.7023,68.83148,94.19349,63.04626,146.09379-35.97931,152.70829-418.64437,192.36126-601.77759,39.03961-180.30043-205.30119-264.85547-217.85707-150.43578l.00002-.00008Z" fill="#3c4358"/><path d="M335.91557,1777.6956c-59.58438-257.51813-48.19358-699.70574,35.895-699.62686l4.4294,471.39095c-10.8057,46.77856-22.5542,91.01516-35.396,121.84294l-4.9284,106.39312v-.00015Z" fill="#1a1a1a" opacity=".1"/></g><g><g><path d="M410.85495,2592.08502c-15.1429,11.27014-66.27601,55.93994-50.55511,73.55956s80.62938,4.90723,116.51599-8.98437c35.88668-13.8916,68.2484-113.81041,68.2484-113.81041,0,0-3.38161,43.56872,2.75928,47.78564s10.9658-4.99451,10.9658-9.81964-1.19381-51.77047,1.1533-57.63824,1.05099-28.33755-6.06331-35.01083-16.67518-16.87515-38.45611-16.5596c-21.78089.3157-70.46211,95.09429-104.56828,120.47789h.00004Z" fill="#3c4358"/><path d="M536.22126,2317.20132c28.56159,43.91098-16.10859,126.42974,12.89661,165.74599,9.6141,13.03192-21.3155,77.36129-40.29609,99.73311-12.36259,14.57153-55.35881,51.61926-82.55229,28.81195-17.39639-14.59045,42.10479-110.04073,59.82208-125.43975,11.3187-9.83765-16.268-140.65795-21.43768-153.21288-5.16972-12.55493,59.2271-34.61029,71.5673-15.63827l.00008-.00015Z" fill="#ffd6d6"/></g><path d="M604.20763,1758.03191s-6.2307,322.21341-3.67729,626.88898c.14481,17.27478-65.69961,37.18109-84.2802,38.02108-22.7206,1.02722-82.77797-19.58252-81.00768-51.65603,10.15491-183.98237-68.7738-525.32573,5.7851-594.73673,90.8575-84.58404,163.18007-18.51745,163.18007-18.51745v.00015Z" fill="#3c4358"/><path d="M340.64316,1148.20225c29.65069,355.8067,51.198,577.37894,71.47899,706.69885,4.83768,30.84701,190.57486-68.98635,192.08548-96.86935,6.38512-117.85674-7.22141-376.96133-17.15919-566.19364-13.3773-254.72898-255.96437-158.34479-246.40527-43.63586Z" fill="#3c4358"/></g><path d="M209.45278,1103.56122c8.34511-87.2515,9.79031-98.55231,29.3013-154.24033,5.6172-16.03248-2.7478-72.10761,6.88841-72.0893,5.07299.00961,76.08749,88.22471,195.54178,85.67222,68.07109-1.45447,120.52218-34.96612,123.114-32.37426s6.32881,60.73463,6.32881,60.73463c8.74691,5.41328,46.8938,214.89263-17.34779,285.07756-62.74589,68.55026-352.72358-79.75799-343.82645-172.78036l-.00006-.00015Z" fill="#3c4358"/><path d="M251.50928,810.6192c.17469,6.17447-8.7908,33.75923-8.9452,41.17317s-4.38459,28.15651,2.04189,35.47958c1.36271,1.55281,34.9069,38.47023,51.57449,38.13682,7.64469-.15289,61.60991,21.09489,61.50348,18.15613-.574-15.85159-96.17068-117.51128-96.96549-121.38572-1.1956-5.82863-9.2091-11.56013-9.2091-11.56013l-.00008.00015Z" fill="#c70095"/></g><g><path d="M395.66917,405.30205c-28.27919-3.61309-54.83821-3.54198-65.17749,3.20202s-61.51,95.1398-3.22472,108.89281c52.46959,12.38079,123.9342-53.05149,125.12309-75.6618s-12.50931-30.7843-56.72088-36.4331v.00008Z" fill="#fcc"/><path d="M347.64348,368.92037c-6.5316,29.73701-22.8183,63.26888,0,73.64078s99.08919,5.08221,95.44021-16.60801c-2.05898-12.23869,4.16271-66.36749-2.59521-72.59071s-92.84499,15.5579-92.84499,15.5579v.00004Z" fill="#fcc"/><g><path d="M353.56568,180.18519c-6.34441,18.61481-50.0447,42.96819-62.05709,50.04449-37.36089,22.00889-48.50919,55.1025-.67961,64.27999,0,0-84.16721-6.9463-14.53819-69.8187,69.62898-62.8725,34.63159-96.86319,34.63159-96.86319l42.6433,52.3573v.00011Z" fill="#3c4358"/><path d="M512.85685,228.89898s62.303,98.98589,18.26038,133.25186-73.59027-23.6211-73.59027-23.6211l55.32989-109.6308v.00004Z" fill="#3c4358"/><path d="M298.17998,162.67979c-35.7856,76.71619-35.0708,167.35916,27.18048,200.44006,74.75269,39.72431,179.18368-4.0052,214.96927-80.7215,35.7856-76.71619,14.1938-145.06568-62.52239-180.85139-76.71619-35.7856-143.84169-15.58349-179.62729,61.13269l-.00008.00013Z" fill="#ffd6d6"/><path d="M279.81708,209.25808c-1.61039,6.9025,23.4523-49.40349,34.35939-55.28169.13611,19.4004,22.36521,32.32099,36.7758,55.3898,31.60389,50.59019,115.68351,73.0854,124.58419,66.1477,0,0,31.8647-43.69819,44.19368-28.2443,10.78861,13.5226-11.6444,73.46669-20.6221,76.5582s-7.9932-3.1815-10.6609-.22419c-23.82801,26.41491-18.14499,32.03109-18.14499,32.03109,0,0,50.61248-13.9238,92.3569-104.4263,67.32459-145.96408-220.98818-307.06616-282.84208-41.95039l.0001.00008Z" fill="#3c4358"/><path d="M315.70857,162.52169s30.03458,93.7997,94.83609,111.20808c0,0-41.85108-27.0965-43.16211-67.5739-.52662-16.2591-51.674-43.63411-51.674-43.63411l.00002-.00008Z" fill="#3c4358"/><path d="M417.95406,237.71738c-3.87932,19.2799,21.64181,62.30869,28.46489,74.4667,21.2212,37.81391,14.21139,72.024-31.74381,55.89908,0,0,76.23958,36.33018,47.68238-53.03209-28.5572-89.36229,18.7875-101.13778,18.7875-101.13778l-63.1911,23.80399.00015.0001Z" fill="#3c4358"/></g></g><path d="M463.41136,529.65945c15.44891,95.97709,20.3376,119.35439,35.46749,127.61916,101.32228,55.3482,100.0669-106.96837,100.0669-106.96837,0,0-35.751-77.23357-49.9718-87.6208s-92.00358,26.95469-85.56251,66.9699l-.00008.00011Z" fill="#c70095"/><path d="M540.25584,605.90826c40.63041,7.9977,62.97489-40.8633,65.80451-56.49681,2.82959-15.63351,3.6697-86.8032-73.27541-65.16399-23.75351,6.68018-31.52569,113.98467,7.47089,121.66079Z" fill="#ffd6d6"/><g><path d="M586.13115,575.39885c52.20718-18.57342,11.39511-215.70658,15.77968-355.18818.25429-8.09099-12.76169-15.8267-22.80498.7785-48.40999,80.03999-47.78251,255.7126-36.72908,311.24375,13.4864,67.75379,43.75431,43.16589,43.75431,43.16589l.00008.00004Z" fill="#ffd6d6"/><path d="M638.70985,219.54458c-3.15819,7.0059-25.2782,35.44559-34.8101,59.72669-7.60479,19.37219-46.5826,5.0868-44.61841-2.53509,5.69969-22.1122-7.31659-69.6124-7.6572-76.9609-.6517-14.06031,26.28898-26.33341,41.97269-31.89809,15.68359-5.56459,41.86409,9.90641,46.98722,15.7225s4.24797,22.36351-1.8742,35.9448v.0001Z" fill="#ffd6d6"/></g></g></g></svg>